<!--?xml version="1.0" encoding="us-ascii" standalone="no"?--><svg xmlns="http://www.w3.org/2000/svg" xmlns:xlink="http://www.w3.org/1999/xlink" contentstyletype="text/css" height="483px" preserveAspectRatio="none" style="width:401px;height:483px;background:#FFFFFF;" version="1.1" viewBox="0 0 401 483" width="401px" zoomAndPan="magnify"><defs></defs><g><!--class Command--><g id="elem_Command"><rect codeline="1" fill="#F1F1F1" height="64.2969" id="Command" rx="2.5" ry="2.5" style="stroke:#181818;stroke-width:0.5;" width="129" x="135.5" y="163.89"></rect><ellipse cx="162.2" cy="179.89" fill="#B4A7E5" rx="11" ry="11" style="stroke:#181818;stroke-width:1.0;"></ellipse><path d="M158.1219,175.6556 L158.1219,173.4994 L165.5125,173.4994 L165.5125,175.6556 L163.0438,175.6556 L163.0438,183.7338 L165.5125,183.7338 L165.5125,185.89 L158.1219,185.89 L158.1219,183.7338 L160.5906,183.7338 L160.5906,175.6556 L158.1219,175.6556 Z " fill="#000000"></path><text fill="#000000" font-family="sans-serif" font-size="14" font-style="italic" lengthAdjust="spacing" textLength="71" x="178.8" y="184.7367">Command</text><line style="stroke:#181818;stroke-width:0.5;" x1="136.5" x2="263.5" y1="195.89" y2="195.89"></line><line style="stroke:#181818;stroke-width:0.5;" x1="136.5" x2="263.5" y1="203.89" y2="203.89"></line><ellipse cx="146.5" cy="217.5384" fill="#84BE84" rx="3" ry="3" style="stroke:#038048;stroke-width:1.0;"></ellipse><text fill="#000000" font-family="sans-serif" font-size="14" font-style="italic" lengthAdjust="spacing" textLength="103" x="155.5" y="220.8851">execute(): void</text></g><!--class ConcreteCommand1--><g id="elem_ConcreteCommand1"><rect codeline="5" fill="#F1F1F1" height="64.2969" id="ConcreteCommand1" rx="2.5" ry="2.5" style="stroke:#181818;stroke-width:0.5;" width="176" x="7" y="288.19"></rect><ellipse cx="22" cy="304.19" fill="#ADD1B2" rx="11" ry="11" style="stroke:#181818;stroke-width:1.0;"></ellipse><path d="M24.9688,309.8306 Q24.3906,310.1275 23.75,310.2681 Q23.1094,310.4244 22.4063,310.4244 Q19.9063,310.4244 18.5781,308.7837 Q17.2656,307.1275 17.2656,304.0025 Q17.2656,300.8775 18.5781,299.2212 Q19.9063,297.565 22.4063,297.565 Q23.1094,297.565 23.75,297.7212 Q24.4063,297.8775 24.9688,298.1744 L24.9688,300.8931 Q24.3438,300.315 23.75,300.0494 Q23.1563,299.7681 22.5313,299.7681 Q21.1875,299.7681 20.5,300.8462 Q19.8125,301.9087 19.8125,304.0025 Q19.8125,306.0962 20.5,307.1744 Q21.1875,308.2369 22.5313,308.2369 Q23.1563,308.2369 23.75,307.9712 Q24.3438,307.69 24.9688,307.1119 L24.9688,309.8306 Z " fill="#000000"></path><text fill="#000000" font-family="sans-serif" font-size="14" lengthAdjust="spacing" textLength="144" x="36" y="309.0367">ConcreteCommand1</text><line style="stroke:#181818;stroke-width:0.5;" x1="8" x2="182" y1="320.19" y2="320.19"></line><line style="stroke:#181818;stroke-width:0.5;" x1="8" x2="182" y1="328.19" y2="328.19"></line><ellipse cx="18" cy="341.8384" fill="#84BE84" rx="3" ry="3" style="stroke:#038048;stroke-width:1.0;"></ellipse><text fill="#000000" font-family="sans-serif" font-size="14" lengthAdjust="spacing" textLength="103" x="27" y="345.1851">execute(): void</text></g><!--class ConcreteCommand2--><g id="elem_ConcreteCommand2"><rect codeline="9" fill="#F1F1F1" height="64.2969" id="ConcreteCommand2" rx="2.5" ry="2.5" style="stroke:#181818;stroke-width:0.5;" width="176" x="218" y="288.19"></rect><ellipse cx="233" cy="304.19" fill="#ADD1B2" rx="11" ry="11" style="stroke:#181818;stroke-width:1.0;"></ellipse><path d="M235.9688,309.8306 Q235.3906,310.1275 234.75,310.2681 Q234.1094,310.4244 233.4063,310.4244 Q230.9063,310.4244 229.5781,308.7837 Q228.2656,307.1275 228.2656,304.0025 Q228.2656,300.8775 229.5781,299.2212 Q230.9063,297.565 233.4063,297.565 Q234.1094,297.565 234.75,297.7212 Q235.4063,297.8775 235.9688,298.1744 L235.9688,300.8931 Q235.3438,300.315 234.75,300.0494 Q234.1563,299.7681 233.5313,299.7681 Q232.1875,299.7681 231.5,300.8462 Q230.8125,301.9087 230.8125,304.0025 Q230.8125,306.0962 231.5,307.1744 Q232.1875,308.2369 233.5313,308.2369 Q234.1563,308.2369 234.75,307.9712 Q235.3438,307.69 235.9688,307.1119 L235.9688,309.8306 Z " fill="#000000"></path><text fill="#000000" font-family="sans-serif" font-size="14" lengthAdjust="spacing" textLength="144" x="247" y="309.0367">ConcreteCommand2</text><line style="stroke:#181818;stroke-width:0.5;" x1="219" x2="393" y1="320.19" y2="320.19"></line><line style="stroke:#181818;stroke-width:0.5;" x1="219" x2="393" y1="328.19" y2="328.19"></line><ellipse cx="229" cy="341.8384" fill="#84BE84" rx="3" ry="3" style="stroke:#038048;stroke-width:1.0;"></ellipse><text fill="#000000" font-family="sans-serif" font-size="14" lengthAdjust="spacing" textLength="103" x="238" y="345.1851">execute(): void</text></g><!--class Invoker--><g id="elem_Invoker"><rect codeline="13" fill="#F1F1F1" height="96.8906" id="Invoker" rx="2.5" ry="2.5" style="stroke:#181818;stroke-width:0.5;" width="276" x="62" y="7"></rect><ellipse cx="170.75" cy="23" fill="#ADD1B2" rx="11" ry="11" style="stroke:#181818;stroke-width:1.0;"></ellipse><path d="M173.7188,28.6406 Q173.1406,28.9375 172.5,29.0781 Q171.8594,29.2344 171.1563,29.2344 Q168.6563,29.2344 167.3281,27.5938 Q166.0156,25.9375 166.0156,22.8125 Q166.0156,19.6875 167.3281,18.0313 Q168.6563,16.375 171.1563,16.375 Q171.8594,16.375 172.5,16.5313 Q173.1563,16.6875 173.7188,16.9844 L173.7188,19.7031 Q173.0938,19.125 172.5,18.8594 Q171.9063,18.5781 171.2813,18.5781 Q169.9375,18.5781 169.25,19.6563 Q168.5625,20.7188 168.5625,22.8125 Q168.5625,24.9063 169.25,25.9844 Q169.9375,27.0469 171.2813,27.0469 Q171.9063,27.0469 172.5,26.7813 Q173.0938,26.5 173.7188,25.9219 L173.7188,28.6406 Z " fill="#000000"></path><text fill="#000000" font-family="sans-serif" font-size="14" lengthAdjust="spacing" textLength="50" x="191.25" y="27.8467">Invoker</text><line style="stroke:#181818;stroke-width:0.5;" x1="63" x2="337" y1="39" y2="39"></line><rect fill="none" height="6" style="stroke:#C82930;stroke-width:1.0;" width="6" x="70" y="49.6484"></rect><text fill="#000000" font-family="sans-serif" font-size="14" lengthAdjust="spacing" textLength="149" x="82" y="55.9951">command: Command</text><line style="stroke:#181818;stroke-width:0.5;" x1="63" x2="337" y1="63.2969" y2="63.2969"></line><ellipse cx="73" cy="76.9453" fill="#84BE84" rx="3" ry="3" style="stroke:#038048;stroke-width:1.0;"></ellipse><text fill="#000000" font-family="sans-serif" font-size="14" lengthAdjust="spacing" textLength="250" x="82" y="80.292">setCommand(cmd: Command): void</text><ellipse cx="73" cy="93.2422" fill="#84BE84" rx="3" ry="3" style="stroke:#038048;stroke-width:1.0;"></ellipse><text fill="#000000" font-family="sans-serif" font-size="14" lengthAdjust="spacing" textLength="174" x="82" y="96.5889">executeCommand(): void</text></g><!--class Receiver--><g id="elem_Receiver"><rect codeline="19" fill="#F1F1F1" height="64.2969" id="Receiver" rx="2.5" ry="2.5" style="stroke:#181818;stroke-width:0.5;" width="115" x="142.5" y="412.48"></rect><ellipse cx="167.85" cy="428.48" fill="#ADD1B2" rx="11" ry="11" style="stroke:#181818;stroke-width:1.0;"></ellipse><path d="M170.8188,434.1206 Q170.2406,434.4175 169.6,434.5581 Q168.9594,434.7144 168.2563,434.7144 Q165.7563,434.7144 164.4281,433.0737 Q163.1156,431.4175 163.1156,428.2925 Q163.1156,425.1675 164.4281,423.5112 Q165.7563,421.855 168.2563,421.855 Q168.9594,421.855 169.6,422.0112 Q170.2563,422.1675 170.8188,422.4644 L170.8188,425.1831 Q170.1938,424.605 169.6,424.3394 Q169.0063,424.0581 168.3813,424.0581 Q167.0375,424.0581 166.35,425.1362 Q165.6625,426.1987 165.6625,428.2925 Q165.6625,430.3862 166.35,431.4644 Q167.0375,432.5269 168.3813,432.5269 Q169.0063,432.5269 169.6,432.2612 Q170.1938,431.98 170.8188,431.4019 L170.8188,434.1206 Z " fill="#000000"></path><text fill="#000000" font-family="sans-serif" font-size="14" lengthAdjust="spacing" textLength="60" x="184.15" y="433.3267">Receiver</text><line style="stroke:#181818;stroke-width:0.5;" x1="143.5" x2="256.5" y1="444.48" y2="444.48"></line><line style="stroke:#181818;stroke-width:0.5;" x1="143.5" x2="256.5" y1="452.48" y2="452.48"></line><ellipse cx="153.5" cy="466.1284" fill="#84BE84" rx="3" ry="3" style="stroke:#038048;stroke-width:1.0;"></ellipse><text fill="#000000" font-family="sans-serif" font-size="14" lengthAdjust="spacing" textLength="89" x="162.5" y="469.4751">action(): void</text></g><!--reverse link Command to ConcreteCommand1--><g id="link_Command_ConcreteCommand1"><path codeline="23" d="M161.2334,242.1861 C145.5534,260.4461 137.61,269.71 121.95,287.95 " fill="none" id="Command-backto-ConcreteCommand1" style="stroke:#181818;stroke-width:1.0;stroke-dasharray:7.0,7.0;"></path><polygon fill="none" points="172.96,228.53,156.6814,238.2772,165.7855,246.0949,172.96,228.53" style="stroke:#181818;stroke-width:1.0;"></polygon></g><!--reverse link Command to ConcreteCommand2--><g id="link_Command_ConcreteCommand2"><path codeline="24" d="M239.0865,242.1344 C254.9065,260.3944 262.98,269.71 278.79,287.95 " fill="none" id="Command-backto-ConcreteCommand2" style="stroke:#181818;stroke-width:1.0;stroke-dasharray:7.0,7.0;"></path><polygon fill="none" points="227.3,228.53,234.5517,246.0632,243.6213,238.2055,227.3,228.53" style="stroke:#181818;stroke-width:1.0;"></polygon></g><!--reverse link Invoker to Command--><g id="link_Invoker_Command"><path codeline="25" d="M200,116.14 C200,135.87 200,146.2 200,163.79 " fill="none" id="Invoker-backto-Command" style="stroke:#181818;stroke-width:1.0;"></path><polygon fill="none" points="200,104.14,196,110.14,200,116.14,204,110.14,200,104.14" style="stroke:#181818;stroke-width:1.0;"></polygon></g><!--link ConcreteCommand1 to Receiver--><g id="link_ConcreteCommand1_Receiver"><path codeline="26" d="M122.04,352.83 C137.72,371.09 153.4816,389.4476 169.1416,407.6876 " fill="none" id="ConcreteCommand1-to-Receiver" style="stroke:#181818;stroke-width:1.0;"></path><polygon fill="#181818" points="173.05,412.24,170.2222,402.8058,169.793,408.4464,164.1524,408.0171,173.05,412.24" style="stroke:#181818;stroke-width:1.0;"></polygon></g><!--link ConcreteCommand2 to Receiver--><g id="link_ConcreteCommand2_Receiver"><path codeline="27" d="M278.7,352.83 C262.88,371.09 246.9499,389.4661 231.1399,407.7061 " fill="none" id="ConcreteCommand2-to-Receiver" style="stroke:#181818;stroke-width:1.0;"></path><polygon fill="#181818" points="227.21,412.24,236.1274,408.0591,230.4849,408.4618,230.0822,402.8193,227.21,412.24" style="stroke:#181818;stroke-width:1.0;"></polygon></g><!--SRC=[ZP312i8m44Jl-OezLaeAzbZ4YoUl_a7ShX0q2IGn56h_tO19h0JK77VcPMT7Qa_s8f3WO9GIUeIPGNopE3jl1Ve5Mg29yEwfsGmGZ1pPmXZUX7EHqMZ9KsAt2VwVw7yJHntCbMmoSi0NEUJ0YNVaqw11zLRpTnzBih7QTI8a6Sgo5c81qkYrCTUqUtHTTVzNjMVv5CDvILzLoFc-v61LNMlr2G00]--></g></svg>